<svg width="186" height="16" viewBox="0 0 186 16" fill="none" xmlns="http://www.w3.org/2000/svg">
<path d="M4.13568 8.74808H3.33492e-05V6.83931H4.13568V2.72134H6.04444V6.83931H10.1447V8.74808H6.04444V12.866H4.13568V8.74808ZM21.5397 1.6079V9.72013H23.4131V11.4875H21.5397V13.9795H19.684V11.4875H11.236V9.72013C11.5894 9.72013 11.9959 9.6082 12.4554 9.38433C12.915 9.14868 13.3863 8.83644 13.8693 8.44762C14.3524 8.04702 14.8237 7.5875 15.2832 7.06907C15.7545 6.53886 16.1728 5.9733 16.5381 5.3724C16.9033 4.77149 17.1979 4.15291 17.4218 3.51666C17.6456 2.86862 17.7576 2.23237 17.7576 1.6079H21.5397ZM19.684 1.64325C19.684 2.45624 19.5426 3.2221 19.2598 3.94083C18.9888 4.64778 18.6295 5.3017 18.1817 5.90261C17.734 6.49173 17.2156 7.02783 16.6264 7.51092C16.0491 7.98221 15.4541 8.38282 14.8414 8.71273C14.2405 9.03085 13.6455 9.27829 13.0563 9.45502C12.4672 9.63176 11.937 9.72013 11.4657 9.72013H19.684V1.64325ZM34.8123 1.6079V9.72013H36.6857V11.4875H34.8123V13.9795H32.9565V11.4875H24.5085V9.72013C24.862 9.72013 25.2685 9.6082 25.728 9.38433C26.1875 9.14868 26.6588 8.83644 27.1419 8.44762C27.625 8.04702 28.0963 7.5875 28.5558 7.06907C29.0271 6.53886 29.4453 5.9733 29.8106 5.3724C30.1759 4.77149 30.4704 4.15291 30.6943 3.51666C30.9182 2.86862 31.0301 2.23237 31.0301 1.6079H34.8123ZM32.9565 1.64325C32.9565 2.45624 32.8151 3.2221 32.5324 3.94083C32.2614 4.64778 31.902 5.3017 31.4543 5.90261C31.0065 6.49173 30.4881 7.02783 29.899 7.51092C29.3216 7.98221 28.7266 8.38282 28.1139 8.71273C27.513 9.03085 26.918 9.27829 26.3289 9.45502C25.7398 9.63176 25.2096 9.72013 24.7383 9.72013H32.9565V1.64325ZM46.0951 15.5701H44.9817C44.4986 15.087 44.0803 14.5392 43.7269 13.9265C43.3734 13.302 43.0788 12.654 42.8432 11.9824C42.6075 11.299 42.4308 10.5979 42.313 9.87919C42.1951 9.16046 42.1362 8.4653 42.1362 7.79369C42.1362 7.09853 42.1892 6.39747 42.2953 5.69052C42.4131 4.98358 42.5898 4.2943 42.8255 3.6227C43.0611 2.9511 43.3557 2.30895 43.7092 1.69627C44.0627 1.07179 44.4868 0.506237 44.9817 -0.000409453L46.0951 -0.000409453C45.6945 0.541584 45.3528 1.12482 45.0701 1.74929C44.7873 2.37376 44.5516 3.02179 44.3631 3.69339C44.1864 4.365 44.0568 5.04838 43.9743 5.74354C43.8918 6.43871 43.8506 7.12209 43.8506 7.79369C43.8506 8.45351 43.8918 9.13101 43.9743 9.82617C44.0568 10.5096 44.1864 11.187 44.3631 11.8586C44.5516 12.5302 44.7873 13.1842 45.0701 13.8204C45.3528 14.4449 45.6945 15.0281 46.0951 15.5701ZM46.9803 7.82904C46.9803 6.91001 47.0923 6.06756 47.3161 5.3017C47.54 4.53584 47.8876 3.88191 48.3589 3.33992C48.8302 2.78614 49.4311 2.36198 50.1616 2.06741C50.8921 1.76107 51.7699 1.6079 52.795 1.6079C53.8083 1.6079 54.6743 1.76107 55.393 2.06741C56.1235 2.36198 56.7244 2.78025 57.1957 3.32225C57.6788 3.86424 58.0323 4.51817 58.2562 5.28403C58.48 6.04989 58.592 6.89823 58.592 7.82904C58.592 8.75986 58.48 9.6082 58.2562 10.3741C58.0441 11.1281 57.7024 11.7762 57.2311 12.3182C56.7598 12.8484 56.1589 13.2608 55.4284 13.5553C54.6979 13.8381 53.8201 13.9795 52.795 13.9795C51.7346 13.9795 50.8332 13.8499 50.0909 13.5907C49.3604 13.3315 48.7654 12.9485 48.3059 12.4419C47.8463 11.9235 47.5105 11.2813 47.2985 10.5154C47.0864 9.74959 46.9803 8.85412 46.9803 7.82904ZM48.8714 7.82904C48.8714 8.45351 48.9244 9.03675 49.0305 9.57874C49.1483 10.1207 49.3545 10.592 49.6491 10.9926C49.9436 11.3815 50.3442 11.6937 50.8509 11.9293C51.3575 12.1532 52.0056 12.2651 52.795 12.2651C53.5608 12.2651 54.1912 12.1473 54.6861 11.9117C55.1927 11.676 55.5933 11.3579 55.8879 10.9573C56.1824 10.5567 56.3886 10.0913 56.5065 9.56107C56.6361 9.01907 56.7009 8.44173 56.7009 7.82904C56.7009 7.20457 56.6302 6.62134 56.4888 6.07935C56.3592 5.52557 56.1412 5.04838 55.8349 4.64778C55.5285 4.23539 55.1279 3.91137 54.633 3.67572C54.1382 3.44007 53.5255 3.32225 52.795 3.32225C52.0409 3.32225 51.4105 3.44596 50.9039 3.69339C50.3973 3.92904 49.9908 4.25306 49.6844 4.66545C49.3898 5.06605 49.1778 5.54324 49.0482 6.09702C48.9303 6.63901 48.8714 7.21635 48.8714 7.82904ZM59.4712 15.4818C59.86 14.9398 60.1958 14.3565 60.4786 13.7321C60.7614 13.1076 60.9912 12.4654 61.1679 11.8056C61.3446 11.1458 61.4742 10.4742 61.5567 9.79082C61.6392 9.10744 61.6804 8.44173 61.6804 7.79369C61.6804 7.13388 61.6392 6.46228 61.5567 5.77889C61.4742 5.08373 61.3446 4.40623 61.1679 3.74642C60.9912 3.0866 60.7614 2.44445 60.4786 1.81998C60.1958 1.19551 59.86 0.61817 59.4712 0.087959L60.6554 0.087959C61.1384 0.594605 61.5567 1.15427 61.9102 1.76696C62.2637 2.36787 62.5523 3.00412 62.7762 3.67572C63.0119 4.33554 63.1827 5.01303 63.2887 5.7082C63.4066 6.40336 63.4655 7.09853 63.4655 7.79369C63.4655 8.4653 63.4066 9.15457 63.2887 9.86152C63.1827 10.5567 63.0119 11.246 62.7762 11.9293C62.5406 12.6009 62.246 13.2431 61.8925 13.8558C61.5508 14.4685 61.1384 15.0105 60.6554 15.4818H59.4712ZM76.1214 1.6079V3.44596C75.5205 3.44596 74.9372 3.60503 74.3717 3.92315C73.8061 4.2295 73.27 4.65367 72.7634 5.19566C72.2685 5.72587 71.809 6.34445 71.3848 7.0514C70.9607 7.74657 70.5954 8.48886 70.2891 9.27829C69.9945 10.0559 69.7588 10.8512 69.5821 11.6642C69.4172 12.4654 69.3347 13.2372 69.3347 13.9795H66.878C66.878 13.1194 66.9959 12.2651 67.2315 11.4168C67.4789 10.5685 67.8147 9.75548 68.2389 8.97783C68.6749 8.18841 69.1815 7.45789 69.7588 6.78629C70.348 6.11469 70.9783 5.53146 71.6499 5.0366C72.3333 4.54173 73.0462 4.15291 73.7884 3.87013C74.5307 3.58735 75.273 3.44596 76.0153 3.44596H64.7749V1.6079L76.1214 1.6079ZM77.2189 10.321C77.2189 9.89687 77.325 9.51394 77.5371 9.17224C77.7492 8.83055 78.0437 8.53599 78.4208 8.28856C78.8096 8.02934 79.2691 7.82315 79.7993 7.66998C80.3295 7.50502 80.9186 7.39309 81.5667 7.33418C80.3177 7.20457 79.3692 6.95714 78.7212 6.59188C78.085 6.22663 77.7668 5.66107 77.7668 4.89521C77.7668 4.25895 77.9495 3.72874 78.3147 3.30457C78.6918 2.8804 79.1513 2.5446 79.6933 2.29717C80.247 2.03796 80.8362 1.86122 81.4606 1.76696C82.0851 1.66092 82.6448 1.6079 83.1396 1.6079C83.6698 1.6079 84.2413 1.66092 84.854 1.76696C85.4785 1.873 86.0558 2.05563 86.586 2.31485C87.1162 2.56228 87.5581 2.90397 87.9115 3.33992C88.2768 3.76409 88.4594 4.2943 88.4594 4.93055C88.4594 5.68463 88.1236 6.25019 87.452 6.62723C86.7804 7.00427 85.8378 7.23992 84.6242 7.33418C85.2605 7.38131 85.8437 7.48146 86.3739 7.63463C86.9159 7.7878 87.3813 7.994 87.7701 8.25321C88.159 8.51243 88.4594 8.81877 88.6715 9.17224C88.8836 9.51394 88.9896 9.89687 88.9896 10.321C88.9896 11.0398 88.7893 11.6407 88.3887 12.1238C87.9881 12.5951 87.4874 12.9662 86.8865 13.2372C86.2973 13.5082 85.6611 13.7026 84.9777 13.8204C84.2943 13.9265 83.6698 13.9795 83.1043 13.9795C82.5152 13.9795 81.8789 13.9265 81.1955 13.8204C80.5121 13.7026 79.8759 13.5082 79.2868 13.2372C78.6976 12.9544 78.2028 12.5774 77.8022 12.1061C77.4134 11.6348 77.2189 11.0398 77.2189 10.321ZM79.4989 5.19566C79.4989 5.58448 79.6049 5.9085 79.817 6.16771C80.0291 6.42693 80.306 6.63901 80.6476 6.80397C80.9893 6.95714 81.3723 7.06907 81.7964 7.13977C82.2206 7.19868 82.6507 7.22814 83.0866 7.22814C83.5461 7.22814 83.988 7.19868 84.4121 7.13977C84.8481 7.06907 85.231 6.95714 85.5609 6.80397C85.9026 6.63901 86.1736 6.43282 86.3739 6.18539C86.5742 5.92617 86.6744 5.60216 86.6744 5.21333C86.6744 4.82451 86.5448 4.50639 86.2856 4.25895C86.0381 3.99974 85.7318 3.79944 85.3665 3.65805C85.0013 3.51666 84.6124 3.41651 84.2001 3.35759C83.7877 3.29868 83.4224 3.26923 83.1043 3.26923C82.8097 3.26923 82.4563 3.29868 82.0439 3.35759C81.6315 3.40472 81.2368 3.50488 80.8597 3.65805C80.4827 3.79944 80.1587 3.99385 79.8877 4.24128C79.6285 4.48871 79.4989 4.80684 79.4989 5.19566ZM79.0747 9.98523C79.0747 10.433 79.2279 10.8041 79.5342 11.0987C79.8405 11.3932 80.2058 11.6289 80.63 11.8056C81.0659 11.9706 81.5137 12.0884 81.9732 12.1591C82.4327 12.2298 82.8097 12.2651 83.1043 12.2651C83.4224 12.2651 83.8053 12.2298 84.2531 12.1591C84.7126 12.0884 85.1544 11.9706 85.5786 11.8056C86.0028 11.6289 86.3621 11.3932 86.6567 11.0987C86.963 10.8041 87.1162 10.433 87.1162 9.98523C87.1162 9.5375 86.9925 9.16635 86.7451 8.87179C86.4976 8.56545 86.1795 8.31801 85.7907 8.12949C85.4019 7.94098 84.9718 7.81137 84.5005 7.74067C84.0292 7.6582 83.5638 7.61696 83.1043 7.61696C82.6683 7.61696 82.2088 7.6582 81.7257 7.74067C81.2544 7.81137 80.8185 7.94098 80.4179 8.12949C80.0291 8.31801 79.705 8.56545 79.4458 8.87179C79.1984 9.16635 79.0747 9.5375 79.0747 9.98523ZM95.0612 7.74067V5.84959L100.752 3.33992H90.3777V1.6079H100.823V5.00125L95.185 7.61696C95.6209 7.5227 96.0274 7.45789 96.4044 7.42255C96.7933 7.3872 97.1585 7.36953 97.5002 7.36953C98.16 7.36953 98.7256 7.44022 99.1969 7.58161C99.6682 7.723 100.051 7.91152 100.346 8.14717C100.652 8.37104 100.876 8.63614 101.017 8.94249C101.159 9.23705 101.229 9.54339 101.229 9.86152C101.229 10.5802 101.064 11.2047 100.734 11.7349C100.416 12.2534 99.9922 12.6775 99.462 13.0074C98.9436 13.3373 98.3485 13.5848 97.6769 13.7497C97.0171 13.9029 96.3455 13.9795 95.6621 13.9795C94.9198 13.9795 94.1952 13.897 93.4883 13.7321C92.7931 13.5671 92.1686 13.3138 91.6149 12.9721C91.0729 12.6304 90.6369 12.1944 90.307 11.6642C89.9771 11.134 89.8121 10.5096 89.8121 9.79082H91.7386C91.7386 10.2621 91.8564 10.6568 92.0921 10.975C92.3277 11.2813 92.634 11.5287 93.0111 11.7173C93.3881 11.9058 93.8123 12.0413 94.2836 12.1238C94.7549 12.1944 95.2321 12.2298 95.7152 12.2298C96.1511 12.2298 96.5753 12.1827 96.9877 12.0884C97.4118 11.9824 97.7889 11.8292 98.1188 11.6289C98.4605 11.4286 98.7315 11.1812 98.9318 10.8866C99.1439 10.592 99.2499 10.2503 99.2499 9.86152C99.2499 9.41378 99.0967 9.04264 98.7904 8.74808C98.484 8.45351 98.1129 8.22965 97.6769 8.07647C97.241 7.91152 96.7815 7.80548 96.2984 7.75835C95.8153 7.71122 95.4029 7.70533 95.0612 7.74067ZM102.331 7.82904C102.331 6.91001 102.443 6.06756 102.667 5.3017C102.891 4.53584 103.239 3.88191 103.71 3.33992C104.181 2.78614 104.782 2.36198 105.513 2.06741C106.243 1.76107 107.121 1.6079 108.146 1.6079C109.159 1.6079 110.025 1.76107 110.744 2.06741C111.475 2.36198 112.076 2.78025 112.547 3.32225C113.03 3.86424 113.383 4.51817 113.607 5.28403C113.831 6.04989 113.943 6.89823 113.943 7.82904C113.943 8.75986 113.831 9.6082 113.607 10.3741C113.395 11.1281 113.054 11.7762 112.582 12.3182C112.111 12.8484 111.51 13.2608 110.78 13.5553C110.049 13.8381 109.171 13.9795 108.146 13.9795C107.086 13.9795 106.184 13.8499 105.442 13.5907C104.712 13.3315 104.117 12.9485 103.657 12.4419C103.197 11.9235 102.862 11.2813 102.65 10.5154C102.438 9.74959 102.331 8.85412 102.331 7.82904ZM104.223 7.82904C104.223 8.45351 104.276 9.03675 104.382 9.57874C104.499 10.1207 104.706 10.592 105 10.9926C105.295 11.3815 105.695 11.6937 106.202 11.9293C106.709 12.1532 107.357 12.2651 108.146 12.2651C108.912 12.2651 109.542 12.1473 110.037 11.9117C110.544 11.676 110.944 11.3579 111.239 10.9573C111.534 10.5567 111.74 10.0913 111.858 9.56107C111.987 9.01907 112.052 8.44173 112.052 7.82904C112.052 7.20457 111.981 6.62134 111.84 6.07935C111.71 5.52557 111.492 5.04838 111.186 4.64778C110.88 4.23539 110.479 3.91137 109.984 3.67572C109.489 3.44007 108.877 3.32225 108.146 3.32225C107.392 3.32225 106.762 3.44596 106.255 3.69339C105.748 3.92904 105.342 4.25306 105.036 4.66545C104.741 5.06605 104.529 5.54324 104.399 6.09702C104.281 6.63901 104.223 7.21635 104.223 7.82904ZM124.126 7.74067V5.84959L129.817 3.33992H119.443V1.6079L129.888 1.6079V5.00125L124.25 7.61696C124.686 7.5227 125.092 7.45789 125.469 7.42255C125.858 7.3872 126.223 7.36953 126.565 7.36953C127.225 7.36953 127.791 7.44022 128.262 7.58161C128.733 7.723 129.116 7.91152 129.411 8.14717C129.717 8.37104 129.941 8.63614 130.082 8.94249C130.224 9.23705 130.294 9.54339 130.294 9.86152C130.294 10.5802 130.129 11.2047 129.799 11.7349C129.481 12.2534 129.057 12.6775 128.527 13.0074C128.009 13.3373 127.414 13.5848 126.742 13.7497C126.082 13.9029 125.41 13.9795 124.727 13.9795C123.985 13.9795 123.26 13.897 122.553 13.7321C121.858 13.5671 121.234 13.3138 120.68 12.9721C120.138 12.6304 119.702 12.1944 119.372 11.6642C119.042 11.134 118.877 10.5096 118.877 9.79082H120.804C120.804 10.2621 120.921 10.6568 121.157 10.975C121.393 11.2813 121.699 11.5287 122.076 11.7173C122.453 11.9058 122.877 12.0413 123.349 12.1238C123.82 12.1944 124.297 12.2298 124.78 12.2298C125.216 12.2298 125.64 12.1827 126.053 12.0884C126.477 11.9824 126.854 11.8292 127.184 11.6289C127.525 11.4286 127.796 11.1812 127.997 10.8866C128.209 10.592 128.315 10.2503 128.315 9.86152C128.315 9.41378 128.162 9.04264 127.855 8.74808C127.549 8.45351 127.178 8.22965 126.742 8.07647C126.306 7.91152 125.846 7.80548 125.363 7.75835C124.88 7.71122 124.468 7.70533 124.126 7.74067ZM142.001 13.9441L131.679 13.9795V12.1238L137.123 9.54339C137.747 9.24883 138.248 8.94249 138.625 8.62436C139.014 8.29445 139.314 7.96454 139.526 7.63463C139.738 7.29294 139.88 6.96303 139.951 6.6449C140.021 6.32678 140.057 6.03222 140.057 5.76122C140.057 5.38418 139.962 5.04838 139.774 4.75382C139.585 4.44747 139.338 4.19415 139.031 3.99385C138.737 3.79355 138.395 3.64037 138.006 3.53433C137.629 3.42829 137.246 3.37527 136.858 3.37527C136.433 3.37527 136.009 3.44596 135.585 3.58735C135.173 3.72874 134.796 3.92315 134.454 4.17059C134.124 4.40623 133.853 4.68901 133.641 5.01892C133.429 5.34883 133.323 5.7082 133.323 6.09702H131.396C131.396 5.41364 131.556 4.79506 131.874 4.24128C132.192 3.6875 132.61 3.2162 133.128 2.82738C133.647 2.43856 134.23 2.13811 134.878 1.92602C135.526 1.71394 136.186 1.6079 136.858 1.6079C137.529 1.6079 138.165 1.70216 138.766 1.89068C139.379 2.06741 139.915 2.33252 140.375 2.68599C140.834 3.02769 141.199 3.45775 141.47 3.97617C141.753 4.4946 141.895 5.08962 141.895 5.76122C141.895 6.25608 141.824 6.74505 141.683 7.22814C141.541 7.71122 141.305 8.16484 140.976 8.58901C140.646 9.01318 140.21 9.39611 139.668 9.7378C139.138 10.0677 138.484 10.3387 137.706 10.5508L131.732 12.1238H142.001V13.9441ZM148.507 1.6079V13.9795H146.615V1.76696C146.615 2.47391 146.545 3.07481 146.403 3.56968C146.262 4.06454 146.079 4.48282 145.855 4.82451C145.632 5.1662 145.384 5.4372 145.113 5.6375C144.842 5.82602 144.577 5.9733 144.318 6.07935C144.059 6.18539 143.817 6.25608 143.593 6.29143C143.381 6.31499 143.216 6.32678 143.098 6.32678V4.61243C143.558 4.61243 143.994 4.52406 144.406 4.34732C144.819 4.17059 145.178 3.94083 145.484 3.65805C145.802 3.37527 146.05 3.05714 146.227 2.70367C146.415 2.33841 146.509 1.97315 146.509 1.6079H148.507ZM158.955 10.7099L156.127 13.9795H153.493L156.604 10.7452C157.382 9.944 157.947 9.21937 158.301 8.57134C158.654 7.91152 158.884 7.25759 158.99 6.60956C158.966 6.70382 158.854 6.93947 158.654 7.3165C158.454 7.69354 158.171 8.09415 157.806 8.51832C157.452 8.94249 157.016 9.33131 156.498 9.68478C155.991 10.0383 155.408 10.2444 154.748 10.3034C154.041 10.3741 153.376 10.3328 152.751 10.1796C152.127 10.0147 151.579 9.74958 151.107 9.38433C150.648 9.00729 150.283 8.54188 150.012 7.98811C149.741 7.42255 149.605 6.78629 149.605 6.07935C149.605 5.3017 149.752 4.6301 150.047 4.06454C150.353 3.49898 150.76 3.03358 151.267 2.66832C151.785 2.30306 152.38 2.03796 153.052 1.873C153.723 1.69627 154.436 1.6079 155.19 1.6079C156.015 1.6079 156.781 1.69627 157.488 1.873C158.195 2.03796 158.801 2.30306 159.308 2.66832C159.826 3.03358 160.233 3.49898 160.528 4.06454C160.822 4.6301 160.969 5.30759 160.969 6.09702C160.969 6.63901 160.916 7.12799 160.81 7.56394C160.704 7.98811 160.557 8.38282 160.368 8.74808C160.192 9.10155 159.98 9.43735 159.732 9.75548C159.497 10.0736 159.237 10.3917 158.955 10.7099ZM158.99 6.06167C158.99 5.60216 158.896 5.20155 158.707 4.85986C158.519 4.51817 158.254 4.23539 157.912 4.01152C157.57 3.78765 157.17 3.6227 156.71 3.51666C156.251 3.41062 155.744 3.35759 155.19 3.35759C154.695 3.35759 154.23 3.41651 153.794 3.53433C153.358 3.64037 152.975 3.80533 152.645 4.0292C152.315 4.25306 152.05 4.53584 151.85 4.87753C151.661 5.20744 151.567 5.60216 151.567 6.06167C151.567 6.48584 151.667 6.86288 151.867 7.19279C152.08 7.51092 152.351 7.78191 152.68 8.00578C153.022 8.22965 153.399 8.40049 153.812 8.51832C154.224 8.62436 154.636 8.67738 155.049 8.67738C155.473 8.67738 155.915 8.61847 156.374 8.50064C156.846 8.37104 157.27 8.1943 157.647 7.97043C158.036 7.73478 158.354 7.45789 158.601 7.13977C158.86 6.80986 158.99 6.45049 158.99 6.06167ZM164.081 4.87753L166.909 1.6079L169.543 1.6079L166.432 4.84219C165.654 5.64339 165.089 6.37391 164.735 7.03373C164.382 7.68176 164.152 8.3298 164.046 8.97783C164.07 8.88357 164.181 8.64792 164.382 8.27088C164.582 7.89385 164.859 7.49324 165.212 7.06907C165.578 6.6449 166.02 6.25608 166.538 5.90261C167.056 5.54913 167.64 5.34294 168.288 5.28403C168.995 5.21333 169.66 5.26046 170.285 5.42542C170.909 5.57859 171.451 5.8437 171.911 6.22074C172.382 6.58599 172.753 7.0514 173.024 7.61696C173.295 8.17073 173.431 8.8011 173.431 9.50804C173.431 10.2857 173.278 10.9573 172.971 11.5228C172.677 12.0884 172.27 12.5538 171.752 12.9191C171.245 13.2843 170.656 13.5553 169.984 13.7321C169.313 13.897 168.6 13.9795 167.846 13.9795C167.021 13.9795 166.255 13.897 165.548 13.7321C164.841 13.5553 164.229 13.2843 163.71 12.9191C163.204 12.5538 162.803 12.0884 162.508 11.5228C162.214 10.9573 162.067 10.2798 162.067 9.49037C162.067 8.94838 162.12 8.4653 162.226 8.04113C162.332 7.60518 162.473 7.21046 162.65 6.85699C162.838 6.49173 163.05 6.15004 163.286 5.83191C163.533 5.51379 163.799 5.19566 164.081 4.87753ZM164.046 9.52572C164.046 9.98523 164.14 10.3858 164.329 10.7275C164.517 11.0692 164.782 11.352 165.124 11.5759C165.466 11.7997 165.866 11.9647 166.326 12.0707C166.797 12.1768 167.304 12.2298 167.846 12.2298C168.341 12.2298 168.806 12.1768 169.242 12.0707C169.678 11.9529 170.061 11.7821 170.391 11.5582C170.721 11.3343 170.98 11.0574 171.168 10.7275C171.369 10.3858 171.469 9.98523 171.469 9.52572C171.469 9.10155 171.363 8.7304 171.151 8.41227C170.951 8.08237 170.68 7.80548 170.338 7.58161C170.008 7.35774 169.637 7.19279 169.224 7.08675C168.812 6.96892 168.4 6.91001 167.987 6.91001C167.563 6.91001 167.115 6.97481 166.644 7.10442C166.185 7.22224 165.76 7.39898 165.372 7.63463C164.994 7.8585 164.676 8.13539 164.417 8.4653C164.17 8.78342 164.046 9.1369 164.046 9.52572ZM176.543 4.87753L179.37 1.6079H182.004L178.893 4.84219C178.116 5.64339 177.55 6.37391 177.197 7.03373C176.843 7.68176 176.613 8.3298 176.507 8.97783C176.531 8.88357 176.643 8.64792 176.843 8.27088C177.043 7.89385 177.32 7.49324 177.674 7.06907C178.039 6.6449 178.481 6.25608 178.999 5.90261C179.518 5.54913 180.101 5.34294 180.749 5.28403C181.456 5.21333 182.122 5.26046 182.746 5.42542C183.371 5.57859 183.913 5.8437 184.372 6.22074C184.843 6.58599 185.215 7.0514 185.486 7.61696C185.757 8.17073 185.892 8.8011 185.892 9.50804C185.892 10.2857 185.739 10.9573 185.433 11.5228C185.138 12.0884 184.732 12.5538 184.213 12.9191C183.706 13.2843 183.117 13.5553 182.446 13.7321C181.774 13.897 181.061 13.9795 180.307 13.9795C179.482 13.9795 178.717 13.897 178.01 13.7321C177.303 13.5553 176.69 13.2843 176.172 12.9191C175.665 12.5538 175.264 12.0884 174.97 11.5228C174.675 10.9573 174.528 10.2798 174.528 9.49037C174.528 8.94838 174.581 8.4653 174.687 8.04113C174.793 7.60518 174.934 7.21046 175.111 6.85699C175.3 6.49173 175.512 6.15004 175.747 5.83191C175.995 5.51379 176.26 5.19566 176.543 4.87753ZM176.507 9.52572C176.507 9.98523 176.602 10.3858 176.79 10.7275C176.979 11.0692 177.244 11.352 177.585 11.5759C177.927 11.7997 178.328 11.9647 178.787 12.0707C179.259 12.1768 179.765 12.2298 180.307 12.2298C180.802 12.2298 181.267 12.1768 181.703 12.0707C182.139 11.9529 182.522 11.7821 182.852 11.5582C183.182 11.3343 183.441 11.0574 183.63 10.7275C183.83 10.3858 183.93 9.98523 183.93 9.52572C183.93 9.10155 183.824 8.7304 183.612 8.41227C183.412 8.08237 183.141 7.80548 182.799 7.58161C182.469 7.35774 182.098 7.19279 181.686 7.08675C181.273 6.96892 180.861 6.91001 180.449 6.91001C180.024 6.91001 179.577 6.97481 179.105 7.10442C178.646 7.22224 178.222 7.39898 177.833 7.63463C177.456 7.8585 177.138 8.13539 176.878 8.4653C176.631 8.78342 176.507 9.1369 176.507 9.52572Z" fill="currentColor"/>
</svg>
