<svg width="253" height="25" viewBox="0 0 253 25" fill="none" xmlns="http://www.w3.org/2000/svg">
<path d="M13.44 3.605C10.36 3.605 8.00337 4.34 6.37004 5.81C4.76004 7.28 3.95504 9.50833 3.95504 12.495C3.95504 15.365 4.76004 17.4883 6.37004 18.865C7.98004 20.2417 10.22 20.93 13.09 20.93C14.07 20.93 15.05 20.7667 16.03 20.44C17.0334 20.1133 17.9317 19.67 18.725 19.11C19.5184 18.5267 20.16 17.85 20.65 17.08C21.1634 16.2867 21.42 15.4233 21.42 14.49H12.95V11.06H25.025V24.15H21.42V17.185C21.42 17.4417 21.3617 17.8033 21.245 18.27C21.1284 18.7367 20.93 19.2383 20.65 19.775C20.3934 20.3117 20.0434 20.86 19.6 21.42C19.1567 21.98 18.6084 22.4933 17.955 22.96C17.325 23.4033 16.5667 23.7767 15.68 24.08C14.8167 24.36 13.825 24.5 12.705 24.5C10.7217 24.5 8.93671 24.2317 7.35004 23.695C5.78671 23.1583 4.45671 22.3767 3.36004 21.35C2.26337 20.3233 1.42337 19.0517 0.840039 17.535C0.280039 16.0183 3.911e-05 14.28 3.911e-05 12.32C3.911e-05 10.1733 0.338372 8.33 1.01504 6.79C1.69171 5.22667 2.63671 3.94333 3.85004 2.94C5.06337 1.93667 6.48671 1.20167 8.12004 0.734999C9.77671 0.244999 11.585 -1.66893e-06 13.545 -1.66893e-06C14.945 -1.66893e-06 16.2984 0.163332 17.605 0.489998C18.9117 0.793332 20.09 1.28333 21.14 1.96C22.19 2.63667 23.0534 3.51167 23.73 4.585C24.43 5.65833 24.8617 6.95333 25.025 8.47H21.07C20.8367 7.53667 20.4867 6.76667 20.02 6.16C19.5534 5.53 18.9934 5.02833 18.34 4.655C17.6867 4.28167 16.94 4.01333 16.1 3.85C15.2834 3.68667 14.3967 3.605 13.44 3.605ZM46.9471 -1.66893e-06V3.64H31.0921V10.36H46.9471V13.86H31.0921V20.86H46.9471V24.5H27.2071V-1.66893e-06H46.9471ZM72.0413 -1.66893e-06V3.64H62.5213V24.5H58.6363V3.64H49.1163V-1.66893e-06H72.0413ZM82.4439 -1.66893e-06H86.3289V24.5H82.4439V-1.66893e-06ZM112.184 -1.66893e-06V24.5H104.239L92.4438 -1.66893e-06H96.4688L108.334 24.5V-1.66893e-06H112.184ZM88.5938 24.5V-1.66893e-06H92.4438V24.5H88.5938ZM145.425 -1.66893e-06V3.64H135.905V24.5H132.02V3.64H122.5V-1.66893e-06H145.425ZM171.925 12.25C171.925 16.24 170.793 19.285 168.53 21.385C166.266 23.4617 163.011 24.5 158.765 24.5C154.471 24.5 151.205 23.4617 148.965 21.385C146.748 19.285 145.64 16.24 145.64 12.25C145.64 8.21333 146.783 5.16833 149.07 3.115C151.356 1.03833 154.6 -1.66893e-06 158.8 -1.66893e-06C163 -1.66893e-06 166.231 1.015 168.495 3.045C170.781 5.05167 171.925 8.12 171.925 12.25ZM167.97 12.18C167.97 9.47333 167.2 7.385 165.66 5.915C164.12 4.42167 161.845 3.675 158.835 3.675C155.801 3.675 153.503 4.42167 151.94 5.915C150.376 7.40833 149.595 9.52 149.595 12.25C149.595 15.05 150.376 17.185 151.94 18.655C153.526 20.1017 155.825 20.825 158.835 20.825C161.961 20.825 164.26 20.055 165.73 18.515C167.223 16.975 167.97 14.8633 167.97 12.18ZM174.111 15.05V-1.66893e-06H177.996V14.945C177.996 16.205 178.218 17.22 178.661 17.99C179.128 18.76 179.735 19.355 180.481 19.775C181.251 20.1717 182.138 20.44 183.141 20.58C184.145 20.6967 185.195 20.755 186.291 20.755C187.341 20.755 188.368 20.6967 189.371 20.58C190.375 20.44 191.261 20.16 192.031 19.74C192.825 19.32 193.455 18.7367 193.921 17.99C194.411 17.22 194.656 16.205 194.656 14.945V-1.66893e-06H198.541V15.05C198.541 17.01 198.203 18.6083 197.526 19.845C196.873 21.0583 195.975 22.015 194.831 22.715C193.711 23.3917 192.405 23.8583 190.911 24.115C189.441 24.3717 187.901 24.5 186.291 24.5C184.681 24.5 183.141 24.3717 181.671 24.115C180.201 23.8583 178.906 23.38 177.786 22.68C176.666 21.98 175.768 21.0233 175.091 19.81C174.438 18.5733 174.111 16.9867 174.111 15.05ZM213.338 24.5C211.355 24.5 209.581 24.2317 208.018 23.695C206.455 23.135 205.125 22.33 204.028 21.28C202.955 20.23 202.126 18.9467 201.543 17.43C200.983 15.9133 200.703 14.1983 200.703 12.285C200.703 10.3717 201.006 8.65667 201.613 7.14C202.22 5.62333 203.083 4.34 204.203 3.29C205.323 2.21667 206.665 1.4 208.228 0.839998C209.815 0.279998 211.588 -1.66893e-06 213.548 -1.66893e-06C215.018 -1.66893e-06 216.441 0.163332 217.818 0.489998C219.218 0.793332 220.478 1.295 221.598 1.995C222.718 2.695 223.651 3.605 224.398 4.725C225.168 5.82167 225.658 7.15167 225.868 8.715H221.913C221.75 7.96833 221.423 7.29167 220.933 6.685C220.443 6.055 219.825 5.51833 219.078 5.075C218.355 4.63167 217.503 4.29333 216.523 4.06C215.566 3.80333 214.54 3.675 213.443 3.675C211.88 3.675 210.538 3.90833 209.418 4.375C208.321 4.81833 207.423 5.43667 206.723 6.23C206.023 7 205.51 7.91 205.183 8.96C204.856 9.98667 204.693 11.0833 204.693 12.25C204.693 13.4167 204.845 14.525 205.148 15.575C205.451 16.6017 205.953 17.5117 206.653 18.305C207.353 19.075 208.251 19.6933 209.348 20.16C210.468 20.6033 211.833 20.825 213.443 20.825C214.376 20.825 215.298 20.7317 216.208 20.545C217.141 20.335 218.005 20.0317 218.798 19.635C219.591 19.215 220.268 18.69 220.828 18.06C221.388 17.4067 221.773 16.625 221.983 15.715H225.903C225.646 17.2783 225.121 18.62 224.328 19.74C223.558 20.8367 222.601 21.7467 221.458 22.47C220.315 23.17 219.043 23.6833 217.643 24.01C216.243 24.3367 214.808 24.5 213.338 24.5ZM252.441 -1.66893e-06V24.5H248.556V13.965H231.966V24.5H228.081V-1.66893e-06H231.966V10.325H248.556V-1.66893e-06H252.441Z" fill="currentColor"/>
</svg>
